<svg width="40" height="40" viewBox="0 0 40 40" fill="none" xmlns="http://www.w3.org/2000/svg">
<path d="M8.92801 14.643C12.0839 14.643 14.6423 12.0847 14.6423 8.92879C14.6423 5.77285 12.0839 3.21448 8.92801 3.21448C5.77208 3.21448 3.21371 5.77285 3.21371 8.92879C3.21371 12.0847 5.77208 14.643 8.92801 14.643Z" stroke="#0962E8" stroke-linecap="round" stroke-linejoin="round"/>
<path d="M26.0707 31.7858C29.2267 31.7858 31.785 29.2273 31.785 26.0715C31.785 22.9156 29.2267 20.3572 26.0707 20.3572C22.9148 20.3572 20.3564 22.9156 20.3564 26.0715C20.3564 29.2273 22.9148 31.7858 26.0707 31.7858Z" stroke="#0962E8" stroke-linecap="round" stroke-linejoin="round"/>
<path d="M17.5 34.1667C8.29528 34.1667 0.833344 26.7048 0.833344 17.5L6.38886 20.2778" stroke="#0962E8" stroke-linecap="round" stroke-linejoin="round"/>
<path d="M17.5 0.833374C26.7048 0.833374 34.1667 8.29526 34.1667 17.5L28.6111 14.7223" stroke="#0962E8" stroke-linecap="round" stroke-linejoin="round"/>
</svg>
